{
  "title": "Girlhood[Bande de Filles].2014.BRRip.x264.HORiZON-ArtSubs",
  "uid": 11905889,
  "size": 2120639465,
  "categoryP": "video",
  "categoryS": "movies",
  "magnet": "?xt=urn:btih:63b256c4e8ffc375a038994cc7f754dbe3ed7e7c&amp;dn=Girlhood%5BBande+de+Filles%5D.2014.BRRip.x264.HORiZON-ArtSubs&amp;tr=udp%3A%2F%2Ftracker.openbittorrent.com%3A80&amp;tr=udp%3A%2F%2Fopen.demonii.com%3A1337&amp;tr=udp%3A%2F%2Ftracker.coppersurfer.tk%3A6969&amp;tr=udp%3A%2F%2Fexodus.desync.com%3A6969",
  "seeders": 73,
  "leechers": 5,
  "uploader": "lletaif",
  "files": 1,
  "time": 1431394464,
  "description": "General\nUnique ID                                : 177165107137815370218418925437353585638 (0x8548C22CA520E4BFA16430F5FE3DEBE6)\nComplete name                            : Girlhood[Bande de Filles].2014.BRRip.x264.HORiZON-ArtSubs.mkv\nFormat                                   : Matroska\nFormat version                           : Version 2\nFile size                                : 1.97 GiB\nDuration                                 : 1h 52mn\nOverall bit rate mode                    : Variable\nOverall bit rate                         : 2 505 Kbps\nEncoded date                             : UTC 2015-03-04 14:24:44\nWriting application                      : DVDFab 9.1.4.0\nWriting library                          : libebml v0.7.8 + libmatroska v0.8.1\n\nVideo\nID                                       : 1\nFormat                                   : AVC\nFormat/Info                              : Advanced Video Codec\nFormat profile                           : &lt;a class=&quot;__cf_email__&quot; href=&quot;/cdn-cgi/l/email-protection&quot; data-cfemail=&quot;662e0f010e262a524857&quot;&gt;[email&amp;#160;protected]&lt;/a&gt;&lt;script cf-hash='f9e31' type=&quot;text/javascript&quot;&gt;\n/* &lt;![CDATA[ */!function(){try{var t=&quot;currentScript&quot;in document?document.currentScript:function(){for(var t=document.getElementsByTagName(&quot;script&quot;),e=t.length;e--;)if(t[e].getAttribute(&quot;cf-hash&quot;))return t[e]}();if(t&amp;&amp;t.previousSibling){var e,r,n,i,c=t.previousSibling,a=c.getAttribute(&quot;data-cfemail&quot;);if(a){for(e=&quot;&quot;,r=parseInt(a.substr(0,2),16),n=2;a.length-n;n+=2)i=parseInt(a.substr(n,2),16)^r,e+=String.fromCharCode(i);e=document.createTextNode(e),c.parentNode.replaceChild(e,c)}}}catch(u){}}();/* ]]&gt; */&lt;/script&gt;\nFormat settings, CABAC                   : Yes\nFormat settings, ReFrames                : 2 frames\nCodec ID                                 : V_MPEG4/ISO/AVC\nDuration                                 : 1h 52mn\nBit rate mode                            : Variable\nBit rate                                 : 2 007 Kbps\nMaximum bit rate                         : 3 127 Kbps\nWidth                                    : 1 280 pixels\nHeight                                   : 536 pixels\nDisplay aspect ratio                     : 2.40:1\nFrame rate mode                          : Constant\nFrame rate                               : 23.976 fps\nColor space                              : YUV\nChroma subsampling                       : 4:2:0\nBit depth                                : 8 bits\nScan type                                : Progressive\nBits/(Pixel*Frame)                       : 0.122\nStream size                              : 1.58 GiB (80%)\nDefault                                  : Yes\nForced                                   : No\n\nAudio\nID                                       : 2\nFormat                                   : AC-3\nFormat/Info                              : Audio Coding 3\nMode extension                           : CM (complete main)\nFormat settings, Endianness              : Big\nCodec ID                                 : A_AC3\nDuration                                 : 1h 52mn\nBit rate mode                            : Constant\nBit rate                                 : 448 Kbps\nChannel(s)                               : 6 channels\nChannel positions                        : Front: L C R, Side: L R, LFE\nSampling rate                            : 48.0 KHz\nBit depth                                : 16 bits\nCompression mode                         : Lossy\nStream size                              : 362 MiB (18%)\nLanguage                                 : French\nDefault                                  : Yes\nForced                                   : No",
  "parsed": {
    "xt": "urn:btih:63b256c4e8ffc375a038994cc7f754dbe3ed7e7c",
    "dn": "Girlhood[Bande de Filles].2014.BRRip.x264.HORiZON-ArtSubs",
    "tr": [
      "udp://exodus.desync.com:6969",
      "udp://open.demonii.com:1337",
      "udp://tracker.coppersurfer.tk:6969",
      "udp://tracker.openbittorrent.com:80"
    ],
    "infoHash": "63b256c4e8ffc375a038994cc7f754dbe3ed7e7c",
    "infoHashBuffer": {
      "type": "Buffer",
      "data": [
        99,
        178,
        86,
        196,
        232,
        255,
        195,
        117,
        160,
        56,
        153,
        76,
        199,
        247,
        84,
        219,
        227,
        237,
        126,
        124
      ]
    },
    "name": "Girlhood[Bande de Filles].2014.BRRip.x264.HORiZON-ArtSubs",
    "announce": [
      "udp://exodus.desync.com:6969",
      "udp://open.demonii.com:1337",
      "udp://tracker.coppersurfer.tk:6969",
      "udp://tracker.openbittorrent.com:80"
    ],
    "urlList": []
  },
  "previous": 19,
  "peers": 26,
  "last_updated": "2016-12-27T02:10:08.826Z"
}